<svg width="27" height="34" viewBox="0 0 27 34" fill="none" xmlns="http://www.w3.org/2000/svg">
<path d="M9.49707 0.24707V2.9082C10.6364 2.06185 11.735 1.41081 12.793 0.955078C13.8509 0.483073 15.0391 0.24707 16.3574 0.24707C17.627 0.24707 18.8558 0.523763 20.0439 1.07715C21.2484 1.63053 22.2982 2.39551 23.1934 3.37207C24.1048 4.34863 24.8291 5.52865 25.3662 6.91211C25.9196 8.29557 26.1963 9.76042 26.1963 11.3066C26.1963 13.4551 25.6917 15.3919 24.6826 17.1172C23.6735 18.8424 22.2819 20.1934 20.5078 21.1699C18.75 22.1302 16.7806 22.6104 14.5996 22.6104C12.8906 22.6104 11.1898 22.2441 9.49707 21.5117V29.959C9.49707 30.5938 9.56217 31.0983 9.69238 31.4727C9.82259 31.8633 10.0993 32.1481 10.5225 32.3271C10.9456 32.5062 11.5397 32.5957 12.3047 32.5957H13.5498V33.9385H0.805664V32.5469C1.63574 32.5143 2.25423 32.4574 2.66113 32.376C3.06803 32.2946 3.37728 32.0993 3.58887 31.79C3.80046 31.4808 3.90625 31.0169 3.90625 30.3984V7.30273C3.90625 6.04948 3.65397 5.10547 3.14941 4.4707C2.66113 3.81966 1.83105 3.29883 0.65918 2.9082V1.90723L8.54492 0.24707H9.49707ZM6.29883 29.1045V7.05859C6.29883 5.54492 5.99772 4.44629 5.39551 3.7627C4.79329 3.0791 3.79232 2.79427 2.39258 2.9082C3.30404 3.41276 3.91439 3.94987 4.22363 4.51953C4.54915 5.07292 4.71191 5.9681 4.71191 7.20508V30.2031C4.71191 30.8542 4.63867 31.3669 4.49219 31.7412C4.3457 32.1318 4.06901 32.4818 3.66211 32.791C4.76888 32.6934 5.48503 32.376 5.81055 31.8389C6.13607 31.3018 6.29883 30.3903 6.29883 29.1045ZM9.49707 4.69043V19.0947C11.0433 20.527 12.5081 21.2432 13.8916 21.2432C15.0146 21.2432 16.04 20.9014 16.9678 20.2178C17.8955 19.5342 18.6361 18.5007 19.1895 17.1172C19.7591 15.7174 20.0439 14.0085 20.0439 11.9902C20.0439 10.0208 19.7754 8.36068 19.2383 7.00977C18.7012 5.64258 17.9606 4.61719 17.0166 3.93359C16.0889 3.25 15.0472 2.9082 13.8916 2.9082C12.4756 2.9082 11.0107 3.50228 9.49707 4.69043ZM13.4033 2.15137H13.9893C16.0563 2.15137 17.7165 3.014 18.9697 4.73926C20.223 6.44824 20.8496 8.86523 20.8496 11.9902C20.8496 14.3991 20.5404 16.2546 19.9219 17.5566C19.3034 18.8587 18.4489 19.9574 17.3584 20.8525C18.4977 20.4294 19.4417 19.8109 20.1904 18.9971C20.9391 18.1833 21.5007 17.166 21.875 15.9453C22.2656 14.7246 22.4609 13.3574 22.4609 11.8438C22.4609 10.0208 22.2331 8.43392 21.7773 7.08301C21.3379 5.71582 20.7764 4.6416 20.0928 3.86035C19.4092 3.0791 18.6768 2.50944 17.8955 2.15137C17.1305 1.77702 16.3981 1.58984 15.6982 1.58984C14.9984 1.58984 14.2334 1.77702 13.4033 2.15137Z" fill="white"/>
</svg>
