<svg width="110" height="40" viewBox="0 0 110 40" fill="none" xmlns="http://www.w3.org/2000/svg">
<path d="M9.49707 6.24707V8.9082C10.6364 8.06185 11.735 7.41081 12.793 6.95508C13.8509 6.48307 15.0391 6.24707 16.3574 6.24707C17.627 6.24707 18.8558 6.52376 20.0439 7.07715C21.2484 7.63053 22.2982 8.39551 23.1934 9.37207C24.1048 10.3486 24.8291 11.5286 25.3662 12.9121C25.9196 14.2956 26.1963 15.7604 26.1963 17.3066C26.1963 19.4551 25.6917 21.3919 24.6826 23.1172C23.6735 24.8424 22.2819 26.1934 20.5078 27.1699C18.75 28.1302 16.7806 28.6104 14.5996 28.6104C12.8906 28.6104 11.1898 28.2441 9.49707 27.5117V35.959C9.49707 36.5938 9.56217 37.0983 9.69238 37.4727C9.82259 37.8633 10.0993 38.1481 10.5225 38.3271C10.9456 38.5062 11.5397 38.5957 12.3047 38.5957H13.5498V39.9385H0.805664V38.5469C1.63574 38.5143 2.25423 38.4574 2.66113 38.376C3.06803 38.2946 3.37728 38.0993 3.58887 37.79C3.80046 37.4808 3.90625 37.0169 3.90625 36.3984V13.3027C3.90625 12.0495 3.65397 11.1055 3.14941 10.4707C2.66113 9.81966 1.83105 9.29883 0.65918 8.9082V7.90723L8.54492 6.24707H9.49707ZM6.29883 35.1045V13.0586C6.29883 11.5449 5.99772 10.4463 5.39551 9.7627C4.79329 9.0791 3.79232 8.79427 2.39258 8.9082C3.30404 9.41276 3.91439 9.94987 4.22363 10.5195C4.54915 11.0729 4.71191 11.9681 4.71191 13.2051V36.2031C4.71191 36.8542 4.63867 37.3669 4.49219 37.7412C4.3457 38.1318 4.06901 38.4818 3.66211 38.791C4.76888 38.6934 5.48503 38.376 5.81055 37.8389C6.13607 37.3018 6.29883 36.3903 6.29883 35.1045ZM9.49707 10.6904V25.0947C11.0433 26.527 12.5081 27.2432 13.8916 27.2432C15.0146 27.2432 16.04 26.9014 16.9678 26.2178C17.8955 25.5342 18.6361 24.5007 19.1895 23.1172C19.7591 21.7174 20.0439 20.0085 20.0439 17.9902C20.0439 16.0208 19.7754 14.3607 19.2383 13.0098C18.7012 11.6426 17.9606 10.6172 17.0166 9.93359C16.0889 9.25 15.0472 8.9082 13.8916 8.9082C12.4756 8.9082 11.0107 9.50228 9.49707 10.6904ZM13.4033 8.15137H13.9893C16.0563 8.15137 17.7165 9.014 18.9697 10.7393C20.223 12.4482 20.8496 14.8652 20.8496 17.9902C20.8496 20.3991 20.5404 22.2546 19.9219 23.5566C19.3034 24.8587 18.4489 25.9574 17.3584 26.8525C18.4977 26.4294 19.4417 25.8109 20.1904 24.9971C20.9391 24.1833 21.5007 23.166 21.875 21.9453C22.2656 20.7246 22.4609 19.3574 22.4609 17.8438C22.4609 16.0208 22.2331 14.4339 21.7773 13.083C21.3379 11.7158 20.7764 10.6416 20.0928 9.86035C19.4092 9.0791 18.6768 8.50944 17.8955 8.15137C17.1305 7.77702 16.3981 7.58984 15.6982 7.58984C14.9984 7.58984 14.2334 7.77702 13.4033 8.15137ZM29.0771 17.502C29.0771 15.4186 29.5654 13.5143 30.542 11.7891C31.5348 10.0638 32.8776 8.71289 34.5703 7.73633C36.2793 6.74349 38.1673 6.24707 40.2344 6.24707C42.2526 6.24707 44.0918 6.72721 45.752 7.6875C47.4284 8.64779 48.7467 9.97428 49.707 11.667C50.6673 13.3597 51.1475 15.2396 51.1475 17.3066C51.1475 18.8854 50.8545 20.3828 50.2686 21.7988C49.6989 23.1986 48.9014 24.4111 47.876 25.4365C46.8669 26.4456 45.7031 27.2269 44.3848 27.7803C43.0664 28.3337 41.6504 28.6104 40.1367 28.6104C38.1022 28.6104 36.2386 28.1465 34.5459 27.2188C32.8695 26.291 31.5348 24.9889 30.542 23.3125C29.5654 21.6198 29.0771 19.6829 29.0771 17.502ZM37.7441 27.6582C35.6283 26.3724 34.0413 24.8506 32.9834 23.0928C31.9255 21.335 31.3965 19.4062 31.3965 17.3066C31.3965 15.7116 31.6488 14.3118 32.1533 13.1074C32.6579 11.903 33.3171 10.8695 34.1309 10.0068C34.9609 9.12793 35.9945 8.22461 37.2314 7.29688C35.5876 7.88281 34.2122 8.70475 33.1055 9.7627C31.9987 10.8206 31.1849 12.0332 30.6641 13.4004C30.1432 14.7513 29.8828 16.1836 29.8828 17.6973C29.8828 18.804 30.0537 19.8945 30.3955 20.9688C30.7373 22.043 31.2337 23.0114 31.8848 23.874C32.5521 24.7367 33.374 25.4935 34.3506 26.1445C35.3271 26.7956 36.4583 27.3001 37.7441 27.6582ZM35.1318 16.1104C35.1318 19.5771 35.6364 22.3034 36.6455 24.2891C37.6546 26.2585 38.9648 27.2432 40.5762 27.2432C41.39 27.2432 42.1468 26.9095 42.8467 26.2422C43.5465 25.5586 44.0999 24.5576 44.5068 23.2393C44.93 21.9046 45.1416 20.277 45.1416 18.3564C45.1416 14.971 44.6859 12.3343 43.7744 10.4463C42.8792 8.54199 41.6341 7.58984 40.0391 7.58984C38.4928 7.58984 37.2884 8.30599 36.4258 9.73828C35.5632 11.1543 35.1318 13.2783 35.1318 16.1104ZM43.75 26.3887C44.9707 25.7214 45.9066 24.6634 46.5576 23.2148C47.2087 21.7663 47.5342 19.9922 47.5342 17.8926C47.5342 12.7168 45.9391 9.33952 42.749 7.76074C43.8883 8.90007 44.7021 10.2998 45.1904 11.96C45.695 13.6201 45.9473 15.8499 45.9473 18.6494C45.9473 20.4235 45.7601 21.9128 45.3857 23.1172C45.0277 24.3053 44.4824 25.3958 43.75 26.3887ZM62.7441 6.24707V10.0068C63.9974 8.59082 64.9577 7.61426 65.625 7.07715C66.2923 6.52376 67.098 6.24707 68.042 6.24707C68.8558 6.24707 69.5394 6.54004 70.0928 7.12598C70.6624 7.69564 70.9473 8.41992 70.9473 9.29883C70.9473 10.2103 70.695 10.9753 70.1904 11.5938C69.6859 12.196 69.0511 12.4971 68.2861 12.4971C67.9443 12.4971 67.57 12.432 67.1631 12.3018C66.7562 12.1715 66.4144 12.0007 66.1377 11.7891C65.9749 11.6589 65.804 11.5205 65.625 11.374C65.446 11.2275 65.2832 11.1136 65.1367 11.0322C65.0065 10.9508 64.86 10.9102 64.6973 10.9102C64.388 10.9102 64.0788 11.0322 63.7695 11.2764C63.4766 11.5042 63.1348 11.8298 62.7441 12.2529V24.0449C62.7441 24.8913 62.8581 25.4935 63.0859 25.8516C63.3301 26.2096 63.6963 26.4375 64.1846 26.5352C64.6891 26.6165 65.5599 26.6572 66.7969 26.6572V28H53.6865V26.6572H54.3457C56.2337 26.6572 57.1777 25.9085 57.1777 24.4111V13.4492C57.1777 11.5775 56.014 10.2917 53.6865 9.5918V8.76172L61.5479 6.24707H62.7441ZM57.9834 13.4492V24.5576C57.9834 25.111 57.8939 25.526 57.7148 25.8027C57.5358 26.0632 57.2754 26.348 56.9336 26.6572C57.8613 26.5758 58.5286 26.3317 58.9355 25.9248C59.3424 25.5016 59.5459 24.7773 59.5459 23.752V13.4492C59.5459 12.0495 59.3018 11.0322 58.8135 10.3975C58.3252 9.7627 57.5521 9.44531 56.4941 9.44531C56.4128 9.44531 56.2337 9.46159 55.957 9.49414C55.6803 9.52669 55.4932 9.54297 55.3955 9.54297C57.1208 10.2917 57.9834 11.5938 57.9834 13.4492ZM64.3799 10.0068C64.8193 10.0068 65.2588 10.1533 65.6982 10.4463C66.7074 11.2438 67.5537 11.6426 68.2373 11.6426C69.0837 11.6426 69.7021 11.0973 70.0928 10.0068C69.637 10.2347 69.3034 10.3486 69.0918 10.3486C68.6035 10.3486 68.1152 10.1859 67.627 9.86035C67.0085 9.35579 66.4958 9.10352 66.0889 9.10352C65.6982 9.10352 65.1286 9.40462 64.3799 10.0068ZM75.1953 22.0918V8.2002H72.583V6.95508C74.0153 5.88086 75.0895 5.05892 75.8057 4.48926C76.5218 3.90332 77.1973 3.25228 77.832 2.53613C78.4831 1.81999 79.0365 1.07129 79.4922 0.290039H80.7861V6.66211H86.8408V8.2002H80.7861V22.7998C80.7861 23.874 80.9163 24.6797 81.1768 25.2168C81.4372 25.7376 81.8766 25.998 82.4951 25.998C83.0811 25.998 83.6182 25.8353 84.1064 25.5098C84.611 25.1842 85.2214 24.6797 85.9375 23.9961L86.8408 24.9482C85.6201 26.2015 84.4971 27.1374 83.4717 27.7559C82.4626 28.3581 81.2988 28.6592 79.9805 28.6592C78.7272 28.6592 77.7507 28.3825 77.0508 27.8291C76.3509 27.2757 75.8626 26.527 75.5859 25.583C75.3255 24.6227 75.1953 23.459 75.1953 22.0918ZM77.5879 4.0498L75.9766 5.39258V21.6035C75.9766 23.7682 76.2533 25.347 76.8066 26.3398C77.3763 27.3164 78.3854 27.8047 79.834 27.8047C80.599 27.8047 81.3639 27.6826 82.1289 27.4385C80.6478 27.4873 79.5166 27.1455 78.7354 26.4131C77.9704 25.6644 77.5879 24.4274 77.5879 22.7021V4.0498ZM94.6045 9.10352C94.6045 9.16862 94.7103 9.40462 94.9219 9.81152C95.1335 10.2184 95.2393 10.6009 95.2393 10.959C95.2393 11.6589 94.9463 12.2855 94.3604 12.8389C93.7907 13.376 93.0745 13.6445 92.2119 13.6445C91.3818 13.6445 90.7227 13.4329 90.2344 13.0098C89.7461 12.5703 89.502 12.0658 89.502 11.4961C89.502 10.6497 89.9089 9.81966 90.7227 9.00586C91.5527 8.19206 92.6839 7.53288 94.1162 7.02832C95.5648 6.50749 97.1598 6.24707 98.9014 6.24707C100.171 6.24707 101.351 6.4668 102.441 6.90625C103.548 7.3457 104.427 8.01302 105.078 8.9082C105.729 9.80339 106.055 10.8857 106.055 12.1553V24.5576C106.055 25.5505 106.34 26.0469 106.909 26.0469C107.251 26.0469 107.666 25.7783 108.154 25.2412L109.058 26.291C108.26 27.0885 107.52 27.6908 106.836 28.0977C106.169 28.5046 105.371 28.708 104.443 28.708C103.369 28.708 102.531 28.472 101.929 28C101.326 27.5117 100.903 26.763 100.659 25.7539C98.4131 27.6908 96.1914 28.6592 93.9941 28.6592C92.4316 28.6592 91.1865 28.2523 90.2588 27.4385C89.3473 26.6247 88.8916 25.5911 88.8916 24.3379C88.8916 23.2148 89.1683 22.2627 89.7217 21.4814C90.2913 20.6839 91.0319 19.984 91.9434 19.3818C92.8711 18.7633 94.2301 17.9902 96.0205 17.0625C97.8109 16.1185 99.2839 15.3128 100.439 14.6455V10.959C100.439 9.85221 100.187 9.014 99.6826 8.44434C99.1781 7.87467 98.4212 7.58984 97.4121 7.58984C96.5332 7.58984 95.8415 7.7526 95.3369 8.07812C94.8486 8.38737 94.6045 8.72917 94.6045 9.10352ZM101.245 12.5459V22.1895C101.245 24.0938 101.449 25.5179 101.855 26.4619C102.262 27.3896 103.06 27.8535 104.248 27.8535C104.785 27.8535 105.216 27.7884 105.542 27.6582C104.565 27.5117 103.874 27.1211 103.467 26.4863C103.06 25.8516 102.856 24.8587 102.856 23.5078V12.3018C102.856 10.609 102.612 9.44531 102.124 8.81055C101.652 8.15951 100.83 7.76888 99.6582 7.63867C100.293 7.96419 100.716 8.4362 100.928 9.05469C101.139 9.67318 101.245 10.8369 101.245 12.5459ZM100.439 24.1426V16.3057C98.3561 17.4775 96.8994 18.5355 96.0693 19.4795C95.2555 20.4235 94.8486 21.5628 94.8486 22.8975C94.8486 23.7926 95.0928 24.4844 95.5811 24.9727C96.0693 25.4609 96.639 25.7051 97.29 25.7051C98.3154 25.7051 99.3652 25.1842 100.439 24.1426ZM96.1426 27.5117C94.6615 27.5117 93.4733 27.2106 92.5781 26.6084C91.6992 26.0062 91.2598 25.1354 91.2598 23.9961C91.2598 23.166 91.4714 22.3848 91.8945 21.6523C92.334 20.9036 92.985 20.0736 93.8477 19.1621C92.5293 19.9271 91.5039 20.7083 90.7715 21.5059C90.0553 22.3034 89.6973 23.2474 89.6973 24.3379C89.6973 25.3307 90.1286 26.1608 90.9912 26.8281C91.8701 27.4792 92.8223 27.8047 93.8477 27.8047C94.8405 27.8047 95.6055 27.707 96.1426 27.5117ZM93.8477 12.1064C93.2617 12.1553 92.8141 12.0413 92.5049 11.7646C92.1956 11.488 92.041 11.1624 92.041 10.7881C92.041 10.2835 92.1794 9.83594 92.4561 9.44531C92.7327 9.03841 93.2129 8.46061 93.8965 7.71191C92.7409 8.29785 91.8538 8.88379 91.2354 9.46973C90.6169 10.0557 90.3076 10.7148 90.3076 11.4473C90.3076 11.7728 90.4704 12.082 90.7959 12.375C91.1377 12.6517 91.5365 12.79 91.9922 12.79C92.7734 12.79 93.3919 12.5622 93.8477 12.1064Z" fill="white"/>
</svg>
